<mxfile host="app.diagrams.net" modified="2024-03-31T06:13:01.788Z" agent="Mozilla/5.0 (Windows NT 10.0; Win64; x64) AppleWebKit/537.36 (KHTML, like Gecko) Chrome/123.0.0.0 Safari/537.36" version="24.2.1" etag="gFbtaCuwzDO4BIsrSlp1" type="github">
  <diagram name="Sayfa -1" id="f3nYVLMQ57lLqPQE79EC">
    <mxGraphModel>
      <root>
        <mxCell id="0" />
        <mxCell id="1" parent="0" />
      </root>
    </mxGraphModel>
  </diagram>
</mxfile>
